<?xml version="1.0" encoding="UTF-8" standalone="no"?>
<!-- Created with Inkscape (http://www.inkscape.org/) -->

<svg
   width="173mm"
   height="118mm"
   viewBox="0 0 173 118"
   version="1.1"
   id="svg1"
   xml:space="preserve"
   inkscape:version="1.4.2 (ebf0e940, 2025-05-08)"
   sodipodi:docname="saving_tree.svg"
   inkscape:export-filename="saving_tree.png"
   inkscape:export-xdpi="96"
   inkscape:export-ydpi="96"
   xmlns:inkscape="http://www.inkscape.org/namespaces/inkscape"
   xmlns:sodipodi="http://sodipodi.sourceforge.net/DTD/sodipodi-0.dtd"
   xmlns="http://www.w3.org/2000/svg"
   xmlns:svg="http://www.w3.org/2000/svg"><sodipodi:namedview
     id="namedview1"
     pagecolor="#ffffff"
     bordercolor="#000000"
     borderopacity="0.25"
     inkscape:showpageshadow="2"
     inkscape:pageopacity="0.0"
     inkscape:pagecheckerboard="0"
     inkscape:deskcolor="#d1d1d1"
     inkscape:document-units="mm"
     inkscape:zoom="0.53799878"
     inkscape:cx="131.97056"
     inkscape:cy="105.9482"
     inkscape:window-width="1728"
     inkscape:window-height="987"
     inkscape:window-x="0"
     inkscape:window-y="38"
     inkscape:window-maximized="1"
     inkscape:current-layer="layer1"
     inkscape:export-bgcolor="#ffffffff" /><defs
     id="defs1"><rect
       x="55.242577"
       y="91.0756"
       width="494.19711"
       height="59.721706"
       id="rect1" /><rect
       x="55.242577"
       y="91.0756"
       width="65.264992"
       height="19.885677"
       id="rect4" /><rect
       x="55.242577"
       y="91.0756"
       width="65.264992"
       height="19.885677"
       id="rect4-4" /><rect
       x="55.242577"
       y="91.0756"
       width="209.38741"
       height="21.627338"
       id="rect8" /><rect
       x="55.242577"
       y="91.0756"
       width="209.38741"
       height="21.627338"
       id="rect10" /><rect
       x="55.242577"
       y="91.0756"
       width="209.38741"
       height="21.627338"
       id="rect12" /><rect
       x="55.242577"
       y="91.0756"
       width="209.38741"
       height="21.627338"
       id="rect14" /><rect
       x="55.242577"
       y="91.0756"
       width="198.92632"
       height="25.421944"
       id="rect16" /><rect
       x="55.242577"
       y="91.0756"
       width="198.92632"
       height="25.421944"
       id="rect18" /><rect
       x="55.242577"
       y="91.0756"
       width="65.264992"
       height="19.885677"
       id="rect32" /><rect
       x="55.242577"
       y="91.0756"
       width="209.38741"
       height="21.627338"
       id="rect33" /><rect
       x="55.242577"
       y="91.0756"
       width="209.38741"
       height="21.627338"
       id="rect34" /><rect
       x="55.242577"
       y="91.0756"
       width="209.38741"
       height="21.627338"
       id="rect35" /><rect
       x="55.242577"
       y="91.0756"
       width="209.38741"
       height="21.627338"
       id="rect36" /><rect
       x="55.242577"
       y="91.0756"
       width="198.92632"
       height="25.421944"
       id="rect37" /><rect
       x="55.242577"
       y="91.0756"
       width="198.92632"
       height="25.421944"
       id="rect38" /><rect
       x="55.242577"
       y="91.0756"
       width="65.264992"
       height="19.885677"
       id="rect39" /><rect
       x="55.242577"
       y="91.0756"
       width="65.264992"
       height="19.885677"
       id="rect41" /><rect
       x="55.242577"
       y="91.0756"
       width="209.38741"
       height="21.627338"
       id="rect43" /><rect
       x="55.242577"
       y="91.0756"
       width="209.38741"
       height="21.627338"
       id="rect45" /><rect
       x="55.242577"
       y="91.0756"
       width="209.38741"
       height="21.627338"
       id="rect47" /><rect
       x="55.242577"
       y="91.0756"
       width="65.264992"
       height="19.885677"
       id="rect48" /><rect
       x="55.242577"
       y="91.0756"
       width="65.264992"
       height="19.885677"
       id="rect49" /><rect
       x="55.242577"
       y="91.0756"
       width="471.10577"
       height="73.453613"
       id="rect51" /><rect
       x="55.242577"
       y="91.0756"
       width="215.77953"
       height="37.219196"
       id="rect52" /><rect
       x="55.242577"
       y="91.0756"
       width="215.77953"
       height="37.219196"
       id="rect53" /><rect
       x="55.242577"
       y="91.0756"
       width="236.84604"
       height="59.971039"
       id="rect55" /><rect
       x="55.242577"
       y="91.0756"
       width="229.41473"
       height="61.032654"
       id="rect56" /><rect
       x="55.242577"
       y="91.0756"
       width="236.84604"
       height="59.971039"
       id="rect60" /><rect
       x="55.242577"
       y="91.0756"
       width="236.84604"
       height="59.971039"
       id="rect61" /><rect
       x="55.242577"
       y="91.0756"
       width="236.84604"
       height="59.971039"
       id="rect64" /><rect
       x="55.242577"
       y="91.0756"
       width="65.264992"
       height="19.885677"
       id="rect67" /><rect
       x="55.242577"
       y="91.0756"
       width="236.84604"
       height="59.971039"
       id="rect68" /></defs><g
     inkscape:label="Layer 1"
     inkscape:groupmode="layer"
     id="layer1"
     transform="translate(-9.9612376,-24.91542)"><rect
       style="fill:#f0ebc3;fill-opacity:1;stroke:#000000;stroke-width:0.4;stroke-miterlimit:1;stroke-dasharray:none;stroke-opacity:1"
       id="rect65"
       width="62.872955"
       height="113.33022"
       x="117.37874"
       y="26.859661"
       ry="5.6922126" /><text
       xml:space="preserve"
       transform="matrix(0.26458333,0,0,0.26458333,2.4377138,2.1166667)"
       id="text1"
       style="font-size:14.6667px;line-height:1.4;font-family:Arial;-inkscape-font-specification:Arial;text-align:end;writing-mode:lr-tb;direction:ltr;white-space:pre;shape-inside:url(#rect1);display:inline;fill:#000000;fill-opacity:1;stroke:#940487;stroke-width:2.26772;stroke-miterlimit:1"
       x="-30.44343"
       y="0"><tspan
         x="55.242188"
         y="105.38727"
         id="tspan5"><tspan
           style="text-align:start;text-anchor:start;stroke:none"
           id="tspan3">2026/04/01</tspan></tspan></text><path
       style="fill:#000000;fill-opacity:1;stroke-width:0.106421"
       d="m 11.710803,30.051817 c -0.16068,-0.09963 -0.162065,-0.112238 -0.162065,-1.475776 0,-1.156046 0.0038,-1.256334 0.05145,-1.345117 0.09441,-0.176035 0.179195,-0.198836 0.739388,-0.198836 0.469699,0 0.501151,0.0034 0.591741,0.06422 0.05262,0.03533 0.121017,0.111314 0.15199,0.168867 0.05632,0.104641 0.05632,0.104641 0.887392,0.104717 0.930658,8.6e-5 0.971858,0.0077 1.074401,0.198913 0.04727,0.08814 0.05145,0.183748 0.05145,1.176174 0,1.184376 -0.0035,1.211794 -0.166705,1.308205 -0.07401,0.04372 -0.218922,0.04796 -1.611547,0.04729 -1.390913,-6.81e-4 -1.53726,-0.0051 -1.607497,-0.04866 z"
       id="path2" /><path
       style="fill:#132778;fill-opacity:1;stroke-width:0.106421"
       d="m 34.933715,36.541721 c -0.160679,-0.09963 -0.162064,-0.112238 -0.162064,-1.475776 0,-1.156046 0.0038,-1.256334 0.05145,-1.345117 0.09441,-0.176035 0.179195,-0.198836 0.739388,-0.198836 0.469699,0 0.501151,0.0034 0.591741,0.06422 0.05262,0.03533 0.121017,0.111314 0.15199,0.168867 0.05632,0.104641 0.05632,0.104641 0.887392,0.104717 0.930658,8.6e-5 0.971858,0.0077 1.074401,0.198913 0.04727,0.08814 0.05145,0.183748 0.05145,1.176174 0,1.184376 -0.0035,1.211794 -0.166705,1.308205 -0.07401,0.04372 -0.218922,0.04796 -1.611547,0.04729 -1.390913,-6.81e-4 -1.53726,-0.0051 -1.607497,-0.04866 z"
       id="path3" /><path
       style="fill:none;fill-opacity:1;stroke:#585858;stroke-width:0.4;stroke-miterlimit:1;stroke-dasharray:none;stroke-opacity:1"
       d="M 32.160425,31.985866 V 141.87329"
       id="path4"
       sodipodi:nodetypes="cc" /><text
       xml:space="preserve"
       transform="matrix(0.26458333,0,0,0.26458333,25.212093,8.7552239)"
       id="text4"
       style="font-size:14.6667px;line-height:1.4;font-family:Arial;-inkscape-font-specification:Arial;text-align:end;writing-mode:lr-tb;direction:ltr;white-space:pre;shape-inside:url(#rect4);display:inline;fill:#132778;fill-opacity:1;stroke:#940487;stroke-width:2.26772;stroke-miterlimit:1"
       x="-30.44343"
       y="0"><tspan
         x="55.242188"
         y="105.38727"
         id="tspan25"><tspan
           style="text-align:start;text-anchor:start;stroke:none"
           id="tspan6">001</tspan></tspan></text><path
       style="fill:#781313;fill-opacity:1;stroke-width:0.106421"
       d="m 45.432368,52.083925 c -0.160679,-0.09963 -0.162064,-0.112238 -0.162064,-1.475776 0,-1.156046 0.0038,-1.256334 0.05145,-1.345117 0.09441,-0.176035 0.179195,-0.198836 0.739388,-0.198836 0.469699,0 0.501151,0.0034 0.591741,0.06422 0.05262,0.03533 0.121017,0.111314 0.15199,0.168867 0.05632,0.104641 0.05632,0.104641 0.887392,0.104717 0.930658,8.6e-5 0.971858,0.0077 1.074401,0.198913 0.04727,0.08814 0.05145,0.183748 0.05145,1.176174 0,1.184376 -0.0035,1.211794 -0.166705,1.308205 -0.07401,0.04372 -0.218922,0.04796 -1.611547,0.04729 -1.390913,-6.81e-4 -1.53726,-0.0051 -1.607497,-0.04866 z"
       id="path3-0" /><text
       xml:space="preserve"
       transform="matrix(0.26458333,0,0,0.26458333,35.710746,24.297429)"
       id="text4-5"
       style="font-size:14.6667px;line-height:1.4;font-family:Arial;-inkscape-font-specification:Arial;text-align:end;writing-mode:lr-tb;direction:ltr;white-space:pre;shape-inside:url(#rect4-4);display:inline;fill:#781313;fill-opacity:1;stroke:#940487;stroke-width:2.26772;stroke-miterlimit:1"
       x="-30.44343"
       y="0"><tspan
         x="55.242188"
         y="105.38727"
         id="tspan27"><tspan
           style="text-align:start;stroke:none"
           id="tspan26">001</tspan></tspan></text><path
       style="fill:none;fill-opacity:1;stroke:#132778;stroke-width:0.4;stroke-miterlimit:1;stroke-dasharray:none;stroke-opacity:1"
       d="M 43.465187,37.907408 V 133.00524"
       id="path5"
       sodipodi:nodetypes="cc" /><path
       style="fill:#781313;fill-opacity:1;stroke-width:0.245037"
       d="m 55.733372,55.940292 v -1.880146 h 0.972489 0.972489 v 0.505695 0.505694 l 0.0778,0.0778 0.0778,0.0778 h 0.473279 0.473278 v 1.296654 1.296652 h -1.523566 -1.523568 z m 2.236725,0.810409 v -0.129668 l -0.675116,-0.0186 -0.675116,-0.0186 -0.06286,0.06286 -0.06285,0.06285 0.03984,0.103811 0.03984,0.103812 0.69814,-0.01841 0.69814,-0.01842 z m 0.01145,-0.590038 0.03983,-0.103789 -0.09049,-0.0573 -0.09048,-0.0573 -0.628293,-10e-4 -0.628292,-10e-4 -0.042,0.06795 -0.04199,0.06795 0.03612,0.09415 0.03612,0.09415 h 0.684811 0.684813 z m 0.0087,-0.690407 0.02173,-0.113458 h -0.750274 -0.750328 v 0.08645 c 0,0.04754 0.02038,0.106819 0.04528,0.131736 l 0.04529,0.04528 0.683314,-0.01826 0.683314,-0.01826 z m 0.01216,-0.936832 v -0.369545 l 0.05482,0.06159 c 0.03016,0.03388 0.179741,0.200171 0.332421,0.369546 l 0.277601,0.307955 h -0.332421 -0.332421 z"
       id="path6" /><path
       style="fill:#781313;fill-opacity:1;stroke:#781313;stroke-width:0.4;stroke-miterlimit:1;stroke-dasharray:none;stroke-opacity:1"
       d="M 53.921882,53.303204 V 72.465647"
       id="path7"
       sodipodi:nodetypes="cc" /><text
       xml:space="preserve"
       transform="matrix(0.26458333,0,0,0.26458333,45.686607,29.48159)"
       id="text8"
       style="font-size:14.6667px;line-height:1.4;font-family:Arial;-inkscape-font-specification:Arial;text-align:end;writing-mode:lr-tb;direction:ltr;white-space:pre;shape-inside:url(#rect8);display:inline;fill:#781313;fill-opacity:1;stroke:#940487;stroke-width:2.26772;stroke-miterlimit:1"
       x="-30.44343"
       y="0"><tspan
         x="55.242188"
         y="105.38727"
         id="tspan33"><tspan
           style="text-align:start;stroke:none"
           id="tspan28">0001_spectrum_trace.csv</tspan></tspan></text><path
       style="fill:#781313;fill-opacity:1;stroke-width:0.245037"
       d="m 55.733372,61.354861 v -1.880146 h 0.972489 0.972489 v 0.505695 0.505694 l 0.0778,0.0778 0.0778,0.0778 h 0.473279 0.473278 v 1.296654 1.296652 h -1.523566 -1.523568 z m 2.236725,0.810409 v -0.129668 l -0.675116,-0.0186 -0.675116,-0.0186 -0.06286,0.06286 -0.06285,0.06285 0.03984,0.103811 0.03984,0.103812 0.69814,-0.01841 0.69814,-0.01842 z m 0.01145,-0.590038 0.03983,-0.103789 -0.09049,-0.0573 -0.09048,-0.0573 -0.628293,-10e-4 -0.628292,-10e-4 -0.042,0.06795 -0.04199,0.06795 0.03612,0.09415 0.03612,0.09415 h 0.684811 0.684813 z m 0.0087,-0.690407 0.02173,-0.113458 h -0.750274 -0.750328 v 0.08645 c 0,0.04754 0.02038,0.106819 0.04528,0.131736 l 0.04529,0.04528 0.683314,-0.01826 0.683314,-0.01826 z m 0.01216,-0.936832 v -0.369545 l 0.05482,0.06159 c 0.03016,0.03388 0.179741,0.200171 0.332421,0.369546 l 0.277601,0.307955 h -0.332421 -0.332421 z"
       id="path8" /><text
       xml:space="preserve"
       transform="matrix(0.26458333,0,0,0.26458333,45.686607,34.896159)"
       id="text10"
       style="font-size:14.6667px;line-height:1.4;font-family:Arial;-inkscape-font-specification:Arial;text-align:end;writing-mode:lr-tb;direction:ltr;white-space:pre;shape-inside:url(#rect10);display:inline;fill:#781313;fill-opacity:1;stroke:#940487;stroke-width:2.26772;stroke-miterlimit:1"
       x="-30.44343"
       y="0"><tspan
         x="55.242188"
         y="105.38727"
         id="tspan35"><tspan
           style="text-align:start;stroke:none"
           id="tspan34">0002_spectrum_trace.csv</tspan></tspan></text><path
       style="fill:#781313;fill-opacity:1;stroke-width:0.245037"
       d="m 55.733372,66.423819 v -1.880146 h 0.972489 0.972489 v 0.505695 0.505694 l 0.0778,0.0778 0.0778,0.0778 h 0.473279 0.473278 v 1.296654 1.296652 h -1.523566 -1.523568 z m 2.236725,0.810409 V 67.10456 l -0.675116,-0.0186 -0.675116,-0.0186 -0.06286,0.06286 -0.06285,0.06285 0.03984,0.103811 0.03984,0.103812 0.69814,-0.01841 0.69814,-0.01842 z m 0.01145,-0.590038 0.03983,-0.103789 -0.09049,-0.0573 -0.09048,-0.0573 -0.628293,-0.001 -0.628292,-0.001 -0.042,0.06795 -0.04199,0.06795 0.03612,0.09415 0.03612,0.09415 h 0.684811 0.684813 z m 0.0087,-0.690407 0.02173,-0.113458 h -0.750274 -0.750328 v 0.08645 c 0,0.04754 0.02038,0.106819 0.04528,0.131736 l 0.04529,0.04528 0.683314,-0.01826 0.683314,-0.01826 z m 0.01216,-0.936832 v -0.369545 l 0.05482,0.06159 c 0.03016,0.03388 0.179741,0.200171 0.332421,0.369546 l 0.277601,0.307955 h -0.332421 -0.332421 z"
       id="path10" /><text
       xml:space="preserve"
       transform="matrix(0.26458333,0,0,0.26458333,45.686607,39.965117)"
       id="text12"
       style="font-size:14.6667px;line-height:1.4;font-family:Arial;-inkscape-font-specification:Arial;text-align:end;writing-mode:lr-tb;direction:ltr;white-space:pre;shape-inside:url(#rect12);display:inline;fill:#781313;fill-opacity:1;stroke:#940487;stroke-width:2.26772;stroke-miterlimit:1"
       x="-30.44343"
       y="0"><tspan
         x="55.242188"
         y="105.38727"
         id="tspan37"><tspan
           style="text-align:start;stroke:none"
           id="tspan36">0003_spectrum_trace.csv</tspan></tspan></text><path
       style="fill:#781313;fill-opacity:1;stroke-width:0.245037"
       d="m 55.733372,71.713908 v -1.880146 h 0.972489 0.972489 v 0.505695 0.505694 l 0.0778,0.0778 0.0778,0.0778 h 0.473279 0.473278 v 1.296654 1.296652 h -1.523566 -1.523568 z m 2.236725,0.810409 v -0.129668 l -0.675116,-0.0186 -0.675116,-0.0186 -0.06286,0.06286 -0.06285,0.06285 0.03984,0.103811 0.03984,0.103812 0.69814,-0.01841 0.69814,-0.01842 z m 0.01145,-0.590038 0.03983,-0.103789 -0.09049,-0.0573 -0.09048,-0.0573 -0.628293,-0.001 -0.628292,-10e-4 -0.042,0.06795 -0.04199,0.06795 0.03612,0.09415 0.03612,0.09415 h 0.684811 0.684813 z m 0.0087,-0.690407 0.02173,-0.113458 h -0.750274 -0.750328 v 0.08645 c 0,0.04754 0.02038,0.106819 0.04528,0.131736 l 0.04529,0.04528 0.683314,-0.01826 0.683314,-0.01826 z m 0.01216,-0.936832 v -0.369545 l 0.05482,0.06159 c 0.03016,0.03388 0.179741,0.200171 0.332421,0.369546 l 0.277601,0.307955 h -0.332421 -0.332421 z"
       id="path12" /><text
       xml:space="preserve"
       transform="matrix(0.26458333,0,0,0.26458333,45.686607,45.255206)"
       id="text14"
       style="font-size:14.6667px;line-height:1.4;font-family:Arial;-inkscape-font-specification:Arial;text-align:end;writing-mode:lr-tb;direction:ltr;white-space:pre;shape-inside:url(#rect14);display:inline;fill:#781313;fill-opacity:1;stroke:#940487;stroke-width:2.26772;stroke-miterlimit:1"
       x="-30.44343"
       y="0"><tspan
         x="55.242188"
         y="105.38727"
         id="tspan54"><tspan
           style="text-align:start;stroke:none"
           id="tspan50">0004_spectrum_trace.csv</tspan></tspan></text><path
       style="fill:#132778;fill-opacity:1;stroke-width:0.245037"
       d="m 45.369092,40.924161 v -1.880146 h 0.972489 0.972489 v 0.505695 0.505694 l 0.0778,0.0778 0.0778,0.0778 h 0.473279 0.473278 v 1.296654 1.296652 h -1.523566 -1.523568 z m 2.236725,0.810409 v -0.129668 l -0.675116,-0.0186 -0.675116,-0.0186 -0.06286,0.06286 -0.06285,0.06285 0.03984,0.103811 0.03984,0.103812 0.69814,-0.01841 0.69814,-0.01842 z m 0.01145,-0.590038 0.03983,-0.103789 -0.09049,-0.0573 -0.09048,-0.0573 -0.628293,-0.001 -0.628292,-10e-4 -0.042,0.06795 -0.04199,0.06795 0.03612,0.09415 0.03612,0.09415 h 0.684811 0.684813 z m 0.0087,-0.690407 0.02173,-0.113458 h -0.750274 -0.750328 v 0.08645 c 0,0.04754 0.02038,0.106819 0.04528,0.131736 l 0.04529,0.04528 0.683314,-0.01826 0.683314,-0.01826 z m 0.01216,-0.936832 v -0.369545 l 0.05482,0.06159 c 0.03016,0.03388 0.179741,0.200171 0.332421,0.369546 l 0.277601,0.307955 h -0.332421 -0.332421 z"
       id="path14" /><text
       xml:space="preserve"
       transform="matrix(0.26458333,0,0,0.26458333,35.710746,14.721998)"
       id="text16"
       style="font-size:14.6667px;line-height:1.4;font-family:Arial;-inkscape-font-specification:Arial;text-align:end;writing-mode:lr-tb;direction:ltr;white-space:pre;shape-inside:url(#rect16);display:inline;fill:#132778;fill-opacity:1;stroke:#940487;stroke-width:2.26772;stroke-miterlimit:1"
       x="-30.44343"
       y="0"><tspan
         x="55.242188"
         y="105.38727"
         id="tspan58"><tspan
           style="text-align:start;stroke:none"
           id="tspan57">001_exp_params.json</tspan></tspan></text><path
       style="fill:#132778;fill-opacity:1;stroke-width:0.245037"
       d="m 45.369092,45.737089 v -1.880146 h 0.972489 0.972489 v 0.505695 0.505694 l 0.0778,0.0778 0.0778,0.0778 h 0.473279 0.473278 v 1.296654 1.296652 h -1.523566 -1.523568 z m 2.236725,0.810409 V 46.41783 l -0.675116,-0.0186 -0.675116,-0.0186 -0.06286,0.06286 -0.06285,0.06285 0.03984,0.103811 0.03984,0.103812 0.69814,-0.01841 0.69814,-0.01842 z m 0.01145,-0.590038 0.03983,-0.103789 -0.09049,-0.0573 -0.09048,-0.0573 -0.628293,-0.001 -0.628292,-10e-4 -0.042,0.06795 -0.04199,0.06795 0.03612,0.09415 0.03612,0.09415 h 0.684811 0.684813 z m 0.0087,-0.690407 0.02173,-0.113458 h -0.750274 -0.750328 v 0.08645 c 0,0.04754 0.02038,0.106819 0.04528,0.131736 l 0.04529,0.04528 0.683314,-0.01826 0.683314,-0.01826 z m 0.01216,-0.936832 v -0.369545 l 0.05482,0.06159 c 0.03016,0.03388 0.179741,0.200171 0.332421,0.369546 l 0.277601,0.307955 h -0.332421 -0.332421 z"
       id="path16" /><text
       xml:space="preserve"
       transform="matrix(0.26458333,0,0,0.26458333,35.710746,19.534926)"
       id="text18"
       style="font-size:14.6667px;line-height:1.4;font-family:Arial;-inkscape-font-specification:Arial;text-align:end;writing-mode:lr-tb;direction:ltr;white-space:pre;shape-inside:url(#rect18);display:inline;fill:#132778;fill-opacity:1;stroke:#940487;stroke-width:2.26772;stroke-miterlimit:1"
       x="-30.44343"
       y="0"><tspan
         x="55.242188"
         y="105.38727"
         id="tspan62"><tspan
           style="text-align:start;stroke:none"
           id="tspan61">001_results.csv</tspan></tspan></text><path
       style="fill:#781313;fill-opacity:1;stroke-width:0.106421"
       d="m 45.432368,88.494769 c -0.160679,-0.09963 -0.162064,-0.112238 -0.162064,-1.475776 0,-1.156046 0.0038,-1.256334 0.05145,-1.345117 0.09441,-0.176035 0.179195,-0.198836 0.739388,-0.198836 0.469699,0 0.501151,0.0034 0.591741,0.06422 0.05262,0.03533 0.121017,0.111314 0.15199,0.168867 0.05632,0.104641 0.05632,0.104641 0.887392,0.104717 0.930658,8.6e-5 0.971858,0.0077 1.074401,0.198913 0.04727,0.08814 0.05145,0.183748 0.05145,1.176174 0,1.184376 -0.0035,1.211794 -0.166705,1.308205 -0.07401,0.04372 -0.218922,0.04796 -1.611547,0.04729 -1.390913,-6.81e-4 -1.53726,-0.0051 -1.607497,-0.04866 z"
       id="path18" /><text
       xml:space="preserve"
       transform="matrix(0.26458333,0,0,0.26458333,35.710746,60.708273)"
       id="text20"
       style="font-size:14.6667px;line-height:1.4;font-family:Arial;-inkscape-font-specification:Arial;text-align:end;writing-mode:lr-tb;direction:ltr;white-space:pre;shape-inside:url(#rect32);display:inline;fill:#781313;fill-opacity:1;stroke:#940487;stroke-width:2.26772;stroke-miterlimit:1"
       x="-30.44343"
       y="0"><tspan
         x="55.242188"
         y="105.38727"
         id="tspan65"><tspan
           style="text-align:start;stroke:none"
           id="tspan63">002</tspan></tspan></text><path
       style="fill:#781313;fill-opacity:1;stroke-width:0.245037"
       d="M 55.733372,92.351136 V 90.47099 h 0.972489 0.972489 v 0.505695 0.505694 l 0.0778,0.0778 0.0778,0.0778 h 0.473279 0.473278 v 1.296654 1.296652 h -1.523566 -1.523568 z m 2.236725,0.810409 v -0.129668 l -0.675116,-0.0186 -0.675116,-0.0186 -0.06286,0.06286 -0.06285,0.06285 0.03984,0.103811 0.03984,0.103812 0.69814,-0.01841 0.69814,-0.01842 z m 0.01145,-0.590038 0.03983,-0.103789 -0.09049,-0.0573 -0.09048,-0.0573 -0.628293,-10e-4 -0.628292,-0.001 -0.042,0.06795 -0.04199,0.06795 0.03612,0.09415 0.03612,0.09415 h 0.684811 0.684813 z m 0.0087,-0.690407 0.02173,-0.113458 h -0.750274 -0.750328 v 0.08645 c 0,0.04754 0.02038,0.106819 0.04528,0.131736 l 0.04529,0.04528 0.683314,-0.01826 0.683314,-0.01826 z m 0.01216,-0.936832 v -0.369545 l 0.05482,0.06159 c 0.03016,0.03388 0.179741,0.200171 0.332421,0.369546 l 0.277601,0.307955 h -0.332421 -0.332421 z"
       id="path20" /><path
       style="fill:#781313;fill-opacity:1;stroke:#781313;stroke-width:0.4;stroke-miterlimit:1;stroke-dasharray:none;stroke-opacity:1"
       d="M 53.921882,89.714048 V 99.989057"
       id="path21"
       sodipodi:nodetypes="cc" /><text
       xml:space="preserve"
       transform="matrix(0.26458333,0,0,0.26458333,45.686607,65.892434)"
       id="text22"
       style="font-size:14.6667px;line-height:1.4;font-family:Arial;-inkscape-font-specification:Arial;text-align:end;writing-mode:lr-tb;direction:ltr;white-space:pre;shape-inside:url(#rect33);display:inline;fill:#781313;fill-opacity:1;stroke:#940487;stroke-width:2.26772;stroke-miterlimit:1"
       x="-30.44343"
       y="0"><tspan
         x="55.242188"
         y="105.38727"
         id="tspan70"><tspan
           style="text-align:start;stroke:none"
           id="tspan69">0001_spectrum_trace.csv</tspan></tspan></text><path
       style="fill:#781313;fill-opacity:1;stroke-width:0.245037"
       d="m 55.733372,97.765705 v -1.880146 h 0.972489 0.972489 v 0.505695 0.505694 l 0.0778,0.0778 0.0778,0.0778 h 0.473279 0.473278 v 1.296654 1.296652 h -1.523566 -1.523568 z m 2.236725,0.810409 v -0.129668 l -0.675116,-0.0186 -0.675116,-0.0186 -0.06286,0.06286 -0.06285,0.06285 0.03984,0.103811 0.03984,0.103812 0.69814,-0.01841 0.69814,-0.01842 z m 0.01145,-0.590038 0.03983,-0.103789 -0.09049,-0.0573 -0.09048,-0.0573 -0.628293,-10e-4 -0.628292,-0.001 -0.042,0.06795 -0.04199,0.06795 0.03612,0.09415 0.03612,0.09415 h 0.684811 0.684813 z m 0.0087,-0.690407 0.02173,-0.113458 h -0.750274 -0.750328 v 0.08645 c 0,0.04754 0.02038,0.106819 0.04528,0.131736 l 0.04529,0.04528 0.683314,-0.01826 0.683314,-0.01826 z m 0.01216,-0.936832 v -0.369545 l 0.05482,0.06159 c 0.03016,0.03388 0.179741,0.200171 0.332421,0.369546 l 0.277601,0.307955 h -0.332421 -0.332421 z"
       id="path22" /><text
       xml:space="preserve"
       transform="matrix(0.26458333,0,0,0.26458333,45.686607,71.307003)"
       id="text24"
       style="font-size:14.6667px;line-height:1.4;font-family:Arial;-inkscape-font-specification:Arial;text-align:end;writing-mode:lr-tb;direction:ltr;white-space:pre;shape-inside:url(#rect34);display:inline;fill:#781313;fill-opacity:1;stroke:#940487;stroke-width:2.26772;stroke-miterlimit:1"
       x="-30.44343"
       y="0"><tspan
         x="55.242188"
         y="105.38727"
         id="tspan72"><tspan
           style="text-align:start;stroke:none"
           id="tspan71">0002_spectrum_trace.csv</tspan></tspan></text><path
       style="fill:#132778;fill-opacity:1;stroke-width:0.245037"
       d="m 45.369092,77.335005 v -1.880146 h 0.972489 0.972489 v 0.505695 0.505694 l 0.0778,0.0778 0.0778,0.0778 h 0.473279 0.473278 v 1.296654 1.296652 h -1.523566 -1.523568 z m 2.236725,0.810409 v -0.129668 l -0.675116,-0.0186 -0.675116,-0.0186 -0.06286,0.06286 -0.06285,0.06285 0.03984,0.103811 0.03984,0.103812 0.69814,-0.01841 0.69814,-0.01842 z m 0.01145,-0.590038 0.03983,-0.103789 -0.09049,-0.0573 -0.09048,-0.0573 -0.628293,-10e-4 -0.628292,-0.001 -0.042,0.06795 -0.04199,0.06795 0.03612,0.09415 0.03612,0.09415 h 0.684811 0.684813 z m 0.0087,-0.690407 0.02173,-0.113458 h -0.750274 -0.750328 v 0.08645 c 0,0.04754 0.02038,0.106819 0.04528,0.131736 l 0.04529,0.04528 0.683314,-0.01826 0.683314,-0.01826 z m 0.01216,-0.936832 v -0.369545 l 0.05482,0.06159 c 0.03016,0.03388 0.179741,0.200171 0.332421,0.369546 l 0.277601,0.307955 h -0.332421 -0.332421 z"
       id="path28" /><text
       xml:space="preserve"
       transform="matrix(0.26458333,0,0,0.26458333,35.710746,51.132842)"
       id="text30"
       style="font-size:14.6667px;line-height:1.4;font-family:Arial;-inkscape-font-specification:Arial;text-align:end;writing-mode:lr-tb;direction:ltr;white-space:pre;shape-inside:url(#rect37);display:inline;fill:#132778;fill-opacity:1;stroke:#940487;stroke-width:2.26772;stroke-miterlimit:1"
       x="-30.44343"
       y="0"><tspan
         x="55.242188"
         y="105.38727"
         id="tspan74"><tspan
           style="text-align:start;stroke:none"
           id="tspan73">002_exp_params.json</tspan></tspan></text><path
       style="fill:#132778;fill-opacity:1;stroke-width:0.245037"
       d="m 45.369092,82.147933 v -1.880146 h 0.972489 0.972489 v 0.505695 0.505694 l 0.0778,0.0778 0.0778,0.0778 h 0.473279 0.473278 v 1.296654 1.296652 h -1.523566 -1.523568 z m 2.236725,0.810409 v -0.129668 l -0.675116,-0.0186 -0.675116,-0.0186 -0.06286,0.06286 -0.06285,0.06285 0.03984,0.103811 0.03984,0.103812 0.69814,-0.01841 0.69814,-0.01842 z m 0.01145,-0.590038 0.03983,-0.103789 -0.09049,-0.0573 -0.09048,-0.0573 -0.628293,-10e-4 -0.628292,-0.001 -0.042,0.06795 -0.04199,0.06795 0.03612,0.09415 0.03612,0.09415 h 0.684811 0.684813 z m 0.0087,-0.690407 0.02173,-0.113458 h -0.750274 -0.750328 v 0.08645 c 0,0.04754 0.02038,0.106819 0.04528,0.131736 l 0.04529,0.04528 0.683314,-0.01826 0.683314,-0.01826 z m 0.01216,-0.936832 V 80.37152 l 0.05482,0.06159 c 0.03016,0.03388 0.179741,0.200171 0.332421,0.369546 l 0.277601,0.307955 h -0.332421 -0.332421 z"
       id="path30" /><text
       xml:space="preserve"
       transform="matrix(0.26458333,0,0,0.26458333,35.710746,55.94577)"
       id="text32"
       style="font-size:14.6667px;line-height:1.4;font-family:Arial;-inkscape-font-specification:Arial;text-align:end;writing-mode:lr-tb;direction:ltr;white-space:pre;shape-inside:url(#rect38);display:inline;fill:#132778;fill-opacity:1;stroke:#940487;stroke-width:2.26772;stroke-miterlimit:1"
       x="-30.44343"
       y="0"><tspan
         x="55.242188"
         y="105.38727"
         id="tspan76"><tspan
           style="text-align:start;stroke:none"
           id="tspan75">002_results.csv</tspan></tspan></text><path
       style="fill:#0b3708;fill-opacity:1;stroke-width:0.106421"
       d="m 45.432368,106.08952 c -0.160679,-0.0996 -0.162064,-0.11224 -0.162064,-1.47578 0,-1.15604 0.0038,-1.25633 0.05145,-1.34511 0.09441,-0.17604 0.179195,-0.19884 0.739388,-0.19884 0.469699,0 0.501151,0.003 0.591741,0.0642 0.05262,0.0353 0.121017,0.11131 0.15199,0.16887 0.05632,0.10464 0.05632,0.10464 0.887392,0.10471 0.930658,9e-5 0.971858,0.008 1.074401,0.19892 0.04727,0.0881 0.05145,0.18375 0.05145,1.17617 0,1.18438 -0.0035,1.2118 -0.166705,1.30821 -0.07401,0.0437 -0.218922,0.048 -1.611547,0.0473 -1.390913,-6.8e-4 -1.53726,-0.005 -1.607497,-0.0487 z"
       id="path38" /><text
       xml:space="preserve"
       transform="matrix(0.26458333,0,0,0.26458333,35.710746,78.303011)"
       id="text39"
       style="font-size:14.6667px;line-height:1.4;font-family:Arial;-inkscape-font-specification:Arial;text-align:end;writing-mode:lr-tb;direction:ltr;white-space:pre;shape-inside:url(#rect39);display:inline;fill:#0b3708;fill-opacity:1;stroke:#940487;stroke-width:2.26772;stroke-miterlimit:1"
       x="-30.44343"
       y="0"><tspan
         x="55.242188"
         y="105.38727"
         id="tspan78"><tspan
           style="text-align:start;stroke:none"
           id="tspan77">scripts</tspan></tspan></text><path
       style="fill:#0b3708;fill-opacity:1;stroke-width:0.106421"
       d="m 56.385914,115.93322 c -0.160679,-0.0996 -0.162064,-0.11224 -0.162064,-1.47578 0,-1.15604 0.0038,-1.25633 0.05145,-1.34511 0.09441,-0.17604 0.179195,-0.19884 0.739388,-0.19884 0.469699,0 0.501151,0.003 0.591741,0.0642 0.05262,0.0353 0.121017,0.11131 0.15199,0.16887 0.05632,0.10464 0.05632,0.10464 0.887392,0.10471 0.930658,9e-5 0.971858,0.008 1.074401,0.19892 0.04727,0.0881 0.05145,0.18375 0.05145,1.17617 0,1.18438 -0.0035,1.2118 -0.166705,1.30821 -0.07401,0.0437 -0.218922,0.048 -1.611547,0.0473 -1.390913,-6.8e-4 -1.53726,-0.005 -1.607497,-0.0487 z"
       id="path39" /><text
       xml:space="preserve"
       transform="matrix(0.26458333,0,0,0.26458333,46.664292,88.146684)"
       id="text41"
       style="font-size:14.6667px;line-height:1.4;font-family:Arial;-inkscape-font-specification:Arial;text-align:end;writing-mode:lr-tb;direction:ltr;white-space:pre;shape-inside:url(#rect41);display:inline;fill:#0b3708;fill-opacity:1;stroke:#940487;stroke-width:2.26772;stroke-miterlimit:1"
       x="-30.44343"
       y="0"><tspan
         x="55.242188"
         y="105.38727"
         id="tspan80"><tspan
           style="text-align:start;stroke:none"
           id="tspan79">subcripts</tspan></tspan></text><path
       style="fill:#0b3708;fill-opacity:1;stroke-width:0.245037"
       d="m 56.576115,109.81535 v -1.88015 h 0.972489 0.972489 v 0.5057 0.50569 l 0.0778,0.0778 0.0778,0.0778 h 0.473279 0.473278 v 1.29666 1.29665 h -1.523566 -1.523568 z m 2.236725,0.81041 v -0.12967 l -0.675116,-0.0186 -0.675116,-0.0186 -0.06286,0.0629 -0.06285,0.0629 0.03984,0.10381 0.03984,0.10381 0.69814,-0.0184 0.69814,-0.0184 z m 0.01145,-0.59004 0.03983,-0.10379 -0.09049,-0.0573 -0.09048,-0.0573 -0.628293,-0.001 -0.628292,-10e-4 -0.042,0.0679 -0.04199,0.0679 0.03612,0.0942 0.03612,0.0941 h 0.684811 0.684813 z m 0.0087,-0.69041 0.02173,-0.11345 h -0.750274 -0.750328 v 0.0864 c 0,0.0475 0.02038,0.10681 0.04528,0.13173 l 0.04529,0.0453 0.683314,-0.0183 0.683314,-0.0183 z m 0.01216,-0.93683 v -0.36954 l 0.05482,0.0616 c 0.03016,0.0339 0.179741,0.20017 0.332421,0.36954 l 0.277601,0.30796 H 59.177571 58.84515 Z"
       id="path41" /><text
       xml:space="preserve"
       transform="matrix(0.26458333,0,0,0.26458333,46.52935,83.356636)"
       id="text43"
       style="font-size:14.6667px;line-height:1.4;font-family:Arial;-inkscape-font-specification:Arial;text-align:end;writing-mode:lr-tb;direction:ltr;white-space:pre;shape-inside:url(#rect43);display:inline;fill:#0b3708;fill-opacity:1;stroke:#940487;stroke-width:2.26772;stroke-miterlimit:1"
       x="-30.44343"
       y="0"><tspan
         x="55.242188"
         y="105.38727"
         id="tspan82"><tspan
           style="text-align:start;stroke:none"
           id="tspan81">main.py</tspan></tspan></text><path
       style="fill:#0b3708;fill-opacity:1;stroke-width:0.245037"
       d="m 66.710141,120.41322 v -1.88015 h 0.972489 0.972489 v 0.5057 0.50569 l 0.0778,0.0778 0.0778,0.0778 h 0.473279 0.473278 v 1.29666 1.29665 H 68.23371 66.710142 Z m 2.236725,0.81041 v -0.12967 l -0.675116,-0.0186 -0.675116,-0.0186 -0.06286,0.0629 -0.06285,0.0629 0.03984,0.10381 0.03984,0.10381 0.69814,-0.0184 0.69814,-0.0184 z m 0.01145,-0.59004 0.03983,-0.10379 -0.09049,-0.0573 -0.09048,-0.0573 -0.628293,-0.001 -0.628292,-10e-4 -0.042,0.0679 -0.04199,0.0679 0.03612,0.0942 0.03612,0.0941 h 0.684811 0.684813 z m 0.0087,-0.69041 0.02173,-0.11345 h -0.750274 -0.750328 v 0.0864 c 0,0.0475 0.02038,0.10681 0.04528,0.13173 l 0.04529,0.0453 0.683314,-0.0183 0.683314,-0.0183 z m 0.01216,-0.93683 v -0.36954 l 0.05482,0.0616 c 0.03016,0.0339 0.179741,0.20017 0.332421,0.36954 l 0.277601,0.30796 h -0.332421 -0.332421 z"
       id="path43" /><text
       xml:space="preserve"
       transform="matrix(0.26458333,0,0,0.26458333,56.663376,93.954506)"
       id="text45"
       style="font-size:14.6667px;line-height:1.4;font-family:Arial;-inkscape-font-specification:Arial;text-align:end;writing-mode:lr-tb;direction:ltr;white-space:pre;shape-inside:url(#rect45);display:inline;fill:#0b3708;fill-opacity:1;stroke:#940487;stroke-width:2.26772;stroke-miterlimit:1"
       x="-30.44343"
       y="0"><tspan
         x="55.242188"
         y="105.38727"
         id="tspan84"><tspan
           style="text-align:start;stroke:none"
           id="tspan83">laser.py</tspan></tspan></text><path
       style="fill:#0b3708;fill-opacity:1;stroke-width:0.245037"
       d="m 66.710141,131.2987 v -1.88015 h 0.972489 0.972489 v 0.5057 0.50569 l 0.0778,0.0778 0.0778,0.0778 h 0.473279 0.473278 v 1.29666 1.29665 H 68.23371 66.710142 Z m 2.236725,0.81041 v -0.12967 l -0.675116,-0.0186 -0.675116,-0.0186 -0.06286,0.0629 -0.06285,0.0629 0.03984,0.10381 0.03984,0.10381 0.69814,-0.0184 0.69814,-0.0184 z m 0.01145,-0.59004 0.03983,-0.10379 -0.09049,-0.0573 -0.09048,-0.0573 -0.628293,-0.001 -0.628292,-0.001 -0.042,0.0679 -0.04199,0.0679 0.03612,0.0942 0.03612,0.0941 h 0.684811 0.684813 z m 0.0087,-0.69041 0.02173,-0.11345 h -0.750274 -0.750328 v 0.0864 c 0,0.0475 0.02038,0.10681 0.04528,0.13173 l 0.04529,0.0453 0.683314,-0.0183 0.683314,-0.0183 z m 0.01216,-0.93683 v -0.36954 l 0.05482,0.0616 c 0.03016,0.0339 0.179741,0.20017 0.332421,0.36954 l 0.277601,0.30796 h -0.332421 -0.332421 z"
       id="path45" /><text
       xml:space="preserve"
       transform="matrix(0.26458333,0,0,0.26458333,56.663376,104.83999)"
       id="text47"
       style="font-size:14.6667px;line-height:1.4;font-family:Arial;-inkscape-font-specification:Arial;text-align:end;writing-mode:lr-tb;direction:ltr;white-space:pre;shape-inside:url(#rect47);display:inline;fill:#0b3708;fill-opacity:1;stroke:#940487;stroke-width:2.26772;stroke-miterlimit:1"
       x="-30.44343"
       y="0"><tspan
         x="55.242188"
         y="105.38727"
         id="tspan86"><tspan
           style="text-align:start;stroke:none"
           id="tspan85">amaz_script.py</tspan></tspan></text><path
       style="fill:#000000;fill-opacity:1;stroke-width:0.106421"
       d="m 34.933715,137.23864 c -0.160679,-0.0996 -0.162064,-0.11224 -0.162064,-1.47578 0,-1.15605 0.0038,-1.25633 0.05145,-1.34512 0.09441,-0.17603 0.179195,-0.19883 0.739388,-0.19883 0.469699,0 0.501151,0.003 0.591741,0.0642 0.05262,0.0353 0.121017,0.11131 0.15199,0.16886 0.05632,0.10465 0.05632,0.10465 0.887392,0.10472 0.930658,9e-5 0.971858,0.008 1.074401,0.19891 0.04727,0.0881 0.05145,0.18375 0.05145,1.17618 0,1.18437 -0.0035,1.21179 -0.166705,1.3082 -0.07401,0.0437 -0.218922,0.048 -1.611547,0.0473 -1.390913,-6.8e-4 -1.53726,-0.005 -1.607497,-0.0487 z"
       id="path47" /><text
       xml:space="preserve"
       transform="matrix(0.26458333,0,0,0.26458333,25.212093,109.45214)"
       id="text48"
       style="font-size:14.6667px;line-height:1.4;font-family:Arial;-inkscape-font-specification:Arial;text-align:end;writing-mode:lr-tb;direction:ltr;white-space:pre;shape-inside:url(#rect48);display:inline;fill:#000000;fill-opacity:1;stroke:#940487;stroke-width:2.26772;stroke-miterlimit:1"
       x="-30.44343"
       y="0"><tspan
         x="55.242188"
         y="105.38727"
         id="tspan88"><tspan
           style="text-align:start;text-anchor:start;stroke:none"
           id="tspan87">002</tspan></tspan></text><path
       style="fill:#000000;fill-opacity:1;stroke-width:0.106421"
       d="m 34.933715,141.94015 c -0.160679,-0.0996 -0.162064,-0.11224 -0.162064,-1.47578 0,-1.15605 0.0038,-1.25633 0.05145,-1.34512 0.09441,-0.17603 0.179195,-0.19883 0.739388,-0.19883 0.469699,0 0.501151,0.003 0.591741,0.0642 0.05262,0.0353 0.121017,0.11131 0.15199,0.16886 0.05632,0.10465 0.05632,0.10465 0.887392,0.10472 0.930658,9e-5 0.971858,0.008 1.074401,0.19891 0.04727,0.0881 0.05145,0.18375 0.05145,1.17618 0,1.18437 -0.0035,1.21179 -0.166705,1.3082 -0.07401,0.0437 -0.218922,0.048 -1.611547,0.0473 -1.390913,-6.8e-4 -1.53726,-0.005 -1.607497,-0.0487 z"
       id="path48" /><text
       xml:space="preserve"
       transform="matrix(0.26458333,0,0,0.26458333,25.212093,114.15365)"
       id="text49"
       style="font-size:14.6667px;line-height:1.4;font-family:Arial;-inkscape-font-specification:Arial;text-align:end;writing-mode:lr-tb;direction:ltr;white-space:pre;shape-inside:url(#rect49);display:inline;fill:#000000;fill-opacity:1;stroke:#940487;stroke-width:2.26772;stroke-miterlimit:1"
       x="-30.44343"
       y="0"><tspan
         x="55.242188"
         y="105.38727"
         id="tspan90"><tspan
           style="text-align:start;text-anchor:start;stroke:none"
           id="tspan89">003</tspan></tspan></text><path
       style="fill:none;fill-opacity:1;stroke:#0b3708;stroke-width:0.4;stroke-miterlimit:1;stroke-dasharray:none;stroke-opacity:1"
       d="M 53.921882,107.71763 V 132.815"
       id="path50"
       sodipodi:nodetypes="cc" /><text
       xml:space="preserve"
       transform="matrix(0.26458333,0,0,0.26458333,105.47324,5.1359643)"
       id="text51"
       style="font-size:14.6667px;line-height:1;font-family:Arial;-inkscape-font-specification:Arial;text-align:end;writing-mode:lr-tb;direction:ltr;white-space:pre;shape-inside:url(#rect51);display:inline;fill:#000000;fill-opacity:1;stroke:none;stroke-width:2.26772;stroke-miterlimit:1;stroke-opacity:1"
       x="-30.44343"
       y="0"><tspan
         x="55.242188"
         y="102.45393"
         id="tspan92"><tspan
           style="text-align:start"
           id="tspan91">Sequence folder</tspan></tspan></text><text
       xml:space="preserve"
       transform="matrix(0.26458333,0,0,0.26458333,104.79967,11.544204)"
       id="text52"
       style="font-size:14.6667px;line-height:1;font-family:Arial;-inkscape-font-specification:Arial;text-align:end;writing-mode:lr-tb;direction:ltr;white-space:pre;shape-inside:url(#rect52);display:inline;fill:#000000;fill-opacity:1;stroke:none;stroke-width:2.26772;stroke-miterlimit:1;stroke-opacity:1"
       x="-30.44343"
       y="0"><tspan
         x="55.242188"
         y="102.45393"
         id="tspan94"><tspan
           style="text-align:start"
           id="tspan93">JSON file containing the </tspan></tspan><tspan
         x="55.242188"
         y="117.12063"
         id="tspan96"><tspan
           style="text-align:start"
           id="tspan95">parameters of each experiment.</tspan></tspan></text><text
       xml:space="preserve"
       transform="matrix(0.26458333,0,0,0.26458333,104.79967,20.602062)"
       id="text53"
       style="font-size:14.6667px;line-height:1;font-family:Arial;-inkscape-font-specification:Arial;text-align:end;writing-mode:lr-tb;direction:ltr;white-space:pre;shape-inside:url(#rect53);display:inline;fill:#000000;fill-opacity:1;stroke:none;stroke-width:2.26772;stroke-miterlimit:1;stroke-opacity:1"
       x="-30.44343"
       y="0"><tspan
         x="55.242188"
         y="102.45393"
         id="tspan98"><tspan
           style="text-align:start"
           id="tspan97">CSV containing a summary of </tspan></tspan><tspan
         x="55.242188"
         y="117.12063"
         id="tspan100"><tspan
           style="text-align:start"
           id="tspan99">the results. One line per run.</tspan></tspan></text><path
       style="fill:#781313;fill-opacity:1;stroke:#000000;stroke-width:0.4;stroke-miterlimit:1;stroke-dasharray:none;stroke-opacity:1"
       d="m 84.91866,46.261564 32.55128,10e-7"
       id="path53"
       sodipodi:nodetypes="cc" /><path
       style="fill:#781313;fill-opacity:1;stroke:#000000;stroke-width:0.4;stroke-miterlimit:1;stroke-dasharray:none;stroke-opacity:1"
       d="m 93.385327,41.356575 24.084613,10e-7"
       id="path54"
       sodipodi:nodetypes="cc" /><path
       style="fill:none;fill-opacity:1;stroke:#000000;stroke-width:0.4;stroke-miterlimit:1;stroke-dasharray:none;stroke-opacity:1"
       d="m 64.358832,51.166553 h 44.547228 l 8.37005,6.452795"
       id="path55"
       sodipodi:nodetypes="ccc" /><text
       xml:space="preserve"
       transform="matrix(0.26458333,0,0,0.26458333,104.79967,30.914383)"
       id="text55"
       style="font-size:14.6667px;line-height:1;font-family:Arial;-inkscape-font-specification:Arial;text-align:end;writing-mode:lr-tb;direction:ltr;white-space:pre;shape-inside:url(#rect55);display:inline;fill:#000000;fill-opacity:1;stroke:none;stroke-width:2.26772;stroke-miterlimit:1;stroke-opacity:1"
       x="-30.44343"
       y="0"><tspan
         x="55.242188"
         y="102.45393"
         id="tspan102"><tspan
           style="text-align:start"
           id="tspan101">Experiment folder. Contains the </tspan></tspan><tspan
         x="55.242188"
         y="117.12063"
         id="tspan104"><tspan
           style="text-align:start"
           id="tspan103">detailed results of each run of the </tspan></tspan><tspan
         x="55.242188"
         y="131.78733"
         id="tspan106"><tspan
           style="text-align:start"
           id="tspan105">experiment.</tspan></tspan></text><text
       xml:space="preserve"
       transform="matrix(0.26458333,0,0,0.26458333,104.79967,45.016923)"
       id="text56"
       style="font-size:14.6667px;line-height:1;font-family:Arial;-inkscape-font-specification:Arial;text-align:end;writing-mode:lr-tb;direction:ltr;white-space:pre;shape-inside:url(#rect56);display:inline;fill:#000000;fill-opacity:1;stroke:none;stroke-width:2.26772;stroke-miterlimit:1;stroke-opacity:1"
       x="-30.44343"
       y="0"><tspan
         x="55.242188"
         y="102.45393"
         id="tspan108"><tspan
           style="text-align:start"
           id="tspan107">Raw data of each single run </tspan></tspan><tspan
         x="55.242188"
         y="117.12063"
         id="tspan110"><tspan
           style="text-align:start"
           id="tspan109">(realization).</tspan></tspan></text><path
       style="fill:#781313;fill-opacity:1;stroke:#000000;stroke-width:0.4;stroke-miterlimit:1;stroke-dasharray:none;stroke-opacity:1"
       d="m 109.26034,71.984535 8.2096,1e-6"
       id="path56"
       sodipodi:nodetypes="cc" /><path
       style="fill:none;fill-opacity:1;stroke:#000000;stroke-width:0.4;stroke-miterlimit:1;stroke-dasharray:none;stroke-opacity:1"
       d="m 109.26034,67.222035 h 3.58123 l 1.98254,4.762501"
       id="path57"
       sodipodi:nodetypes="ccc" /><path
       style="fill:none;fill-opacity:1;stroke:#000000;stroke-width:0.4;stroke-miterlimit:1;stroke-dasharray:none;stroke-opacity:1"
       d="m 109.26034,61.930368 h 1.46456 l 4.09921,10.054168"
       id="path58"
       sodipodi:nodetypes="ccc" /><path
       style="fill:none;fill-opacity:1;stroke:#000000;stroke-width:0.4;stroke-miterlimit:1;stroke-dasharray:none;stroke-opacity:1"
       d="m 80.233832,110.50422 h 28.672228 l 8.53706,3.01407"
       id="path59"
       sodipodi:nodetypes="ccc" /><text
       xml:space="preserve"
       transform="matrix(0.26458333,0,0,0.26458333,104.79967,72.057472)"
       id="text59"
       style="font-size:14.6667px;line-height:1;font-family:Arial;-inkscape-font-specification:Arial;text-align:end;writing-mode:lr-tb;direction:ltr;white-space:pre;shape-inside:url(#rect60);display:inline;fill:#000000;fill-opacity:1;stroke:none;stroke-width:2.26772;stroke-miterlimit:1;stroke-opacity:1"
       x="-30.44343"
       y="0"><tspan
         x="55.242188"
         y="102.45393"
         id="tspan112"><tspan
           style="text-align:start"
           id="tspan111">Folder that contains the script used </tspan></tspan><tspan
         x="55.242188"
         y="117.12063"
         id="tspan114"><tspan
           style="text-align:start"
           id="tspan113">to generate the data to ensure </tspan></tspan><tspan
         x="55.242188"
         y="131.78733"
         id="tspan116"><tspan
           style="text-align:start"
           id="tspan115">replicability of the results.</tspan></tspan></text><text
       xml:space="preserve"
       transform="matrix(0.26458333,0,0,0.26458333,104.79967,86.160012)"
       id="text60"
       style="font-size:14.6667px;line-height:1;font-family:Arial;-inkscape-font-specification:Arial;text-align:end;writing-mode:lr-tb;direction:ltr;white-space:pre;shape-inside:url(#rect61);display:inline;fill:#000000;fill-opacity:1;stroke:none;stroke-width:2.26772;stroke-miterlimit:1;stroke-opacity:1"
       x="-30.44343"
       y="0"><tspan
         x="55.242188"
         y="102.45393"
         id="tspan118"><tspan
           style="text-align:start"
           id="tspan117">The script used to run the </tspan></tspan><tspan
         x="55.242188"
         y="117.12063"
         id="tspan120"><tspan
           style="text-align:start"
           id="tspan119">experiment.</tspan></tspan></text><path
       style="fill:#781313;fill-opacity:1;stroke:#000000;stroke-width:0.4;stroke-miterlimit:1;stroke-dasharray:none;stroke-opacity:1"
       d="M 66.104988,105.50225 H 117.46994"
       id="path61"
       sodipodi:nodetypes="cc" /><path
       style="fill:#781313;fill-opacity:1;stroke:#000000;stroke-width:0.4;stroke-miterlimit:1;stroke-dasharray:none;stroke-opacity:1"
       d="m 100.97614,131.79678 h 16.69994"
       id="path62"
       sodipodi:nodetypes="cc" /><path
       style="fill:none;fill-opacity:1;stroke:#000000;stroke-width:0.4;stroke-miterlimit:1;stroke-dasharray:none;stroke-opacity:1"
       d="m 90.821806,121.25578 26.579304,-0.0213"
       id="path63"
       sodipodi:nodetypes="cc" /><text
       xml:space="preserve"
       transform="matrix(0.26458333,0,0,0.26458333,104.79967,95.23206)"
       id="text64"
       style="font-size:14.6667px;line-height:1;font-family:Arial;-inkscape-font-specification:Arial;text-align:end;writing-mode:lr-tb;direction:ltr;white-space:pre;shape-inside:url(#rect64);display:inline;fill:#000000;fill-opacity:1;stroke:none;stroke-width:2.26772;stroke-miterlimit:1;stroke-opacity:1"
       x="-30.44343"
       y="0"><tspan
         x="55.242188"
         y="102.45393"
         id="tspan122"><tspan
           style="text-align:start"
           id="tspan121">Subscripts that were imported </tspan></tspan><tspan
         x="55.242188"
         y="117.12063"
         id="tspan124"><tspan
           style="text-align:start"
           id="tspan123">during the experiment.</tspan></tspan></text><path
       style="fill:none;fill-opacity:1;stroke:#000000;stroke-width:0.4;stroke-miterlimit:1;stroke-dasharray:none;stroke-opacity:1"
       d="m 51.709417,34.85681 33.913444,-3.175 31.847079,1e-6"
       id="path65"
       sodipodi:nodetypes="ccc" /><path
       style="fill:#0b3708;fill-opacity:1;stroke-width:0.106421"
       d="m 56.385914,126.67079 c -0.160679,-0.0996 -0.162064,-0.11224 -0.162064,-1.47578 0,-1.15604 0.0038,-1.25633 0.05145,-1.34511 0.09441,-0.17604 0.179195,-0.19884 0.739388,-0.19884 0.469699,0 0.501151,0.003 0.591741,0.0642 0.05262,0.0353 0.121017,0.11131 0.15199,0.16887 0.05632,0.10464 0.05632,0.10464 0.887392,0.10471 0.930658,9e-5 0.971858,0.008 1.074401,0.19892 0.04727,0.0881 0.05145,0.18375 0.05145,1.17617 0,1.18438 -0.0035,1.2118 -0.166705,1.30821 -0.07401,0.0437 -0.218922,0.048 -1.611547,0.0473 -1.390913,-6.8e-4 -1.53726,-0.005 -1.607497,-0.0487 z"
       id="path66" /><text
       xml:space="preserve"
       transform="matrix(0.26458333,0,0,0.26458333,46.664292,98.884258)"
       id="text67"
       style="font-size:14.6667px;line-height:1.4;font-family:Arial;-inkscape-font-specification:Arial;text-align:end;writing-mode:lr-tb;direction:ltr;white-space:pre;shape-inside:url(#rect67);display:inline;fill:#0b3708;fill-opacity:1;stroke:#940487;stroke-width:2.26772;stroke-miterlimit:1"
       x="-30.44343"
       y="0"><tspan
         x="55.242188"
         y="105.38727"
         id="tspan126"><tspan
           style="text-align:start;stroke:none"
           id="tspan125">subcripts</tspan></tspan></text><text
       xml:space="preserve"
       transform="matrix(0.26458333,0,0,0.26458333,104.79967,106.00702)"
       id="text68"
       style="font-size:14.6667px;line-height:1;font-family:Arial;-inkscape-font-specification:Arial;text-align:end;writing-mode:lr-tb;direction:ltr;white-space:pre;shape-inside:url(#rect68);display:inline;fill:#000000;fill-opacity:1;stroke:none;stroke-width:2.26772;stroke-miterlimit:1;stroke-opacity:1"
       x="-30.44343"
       y="0"><tspan
         x="55.242188"
         y="102.45393"
         id="tspan128"><tspan
           style="text-align:start"
           id="tspan127">The base class of a Script: have a </tspan></tspan><tspan
         x="55.242188"
         y="117.12063"
         id="tspan130"><tspan
           style="text-align:start"
           id="tspan129">look!</tspan></tspan></text></g></svg>
